<?xml version="1.0" encoding="UTF-8" standalone="no"?>
<!DOCTYPE svg PUBLIC "-//W3C//DTD SVG 1.1//EN" "http://www.w3.org/Graphics/SVG/1.1/DTD/svg11.dtd">
<svg width="100%" height="100%" viewBox="0 0 291 71" version="1.1" xmlns="http://www.w3.org/2000/svg" xmlns:xlink="http://www.w3.org/1999/xlink" xml:space="preserve" xmlns:serif="http://www.serif.com/" style="fill-rule:evenodd;clip-rule:evenodd;stroke-linejoin:round;stroke-miterlimit:2;">
    <g transform="matrix(1.33333,0,0,8.62142,-128.941,-111.698)">
        <g transform="matrix(1,0,0,1,0,11.1133)">
            <g transform="matrix(0.75,0,0,0.11599,-13.7222,-19.3745)">
                <path d="M228.823,230.97L228.823,206.224L234.198,206.224L234.198,226.389L246.679,226.389L246.679,230.97L228.823,230.97Z" style="fill:rgb(8,6,5);fill-rule:nonzero;"/>
                <path d="M258.331,231.403C256.239,231.403 254.483,231.048 253.064,230.339C251.645,229.629 250.575,228.541 249.854,227.074C249.132,225.607 248.772,223.743 248.772,221.483C248.772,219.198 249.132,217.328 249.854,215.873C250.575,214.418 251.639,213.336 253.046,212.627C254.453,211.917 256.179,211.563 258.223,211.563C260.147,211.563 261.77,211.905 263.093,212.591C264.415,213.276 265.414,214.334 266.087,215.765C266.76,217.196 267.097,219.042 267.097,221.302L267.097,222.601L253.858,222.601C253.906,223.707 254.08,224.645 254.381,225.415C254.682,226.184 255.151,226.756 255.788,227.128C256.425,227.501 257.273,227.687 258.331,227.687C258.908,227.687 259.431,227.615 259.9,227.471C260.369,227.327 260.772,227.11 261.109,226.822C261.445,226.533 261.71,226.172 261.902,225.739C262.095,225.307 262.191,224.814 262.191,224.26L267.097,224.26C267.097,225.463 266.881,226.509 266.448,227.399C266.015,228.289 265.414,229.028 264.644,229.617C263.874,230.207 262.955,230.651 261.884,230.952C260.814,231.253 259.63,231.403 258.331,231.403ZM253.93,219.427L261.938,219.427C261.938,218.705 261.848,218.08 261.668,217.551C261.488,217.022 261.241,216.589 260.928,216.252C260.616,215.915 260.237,215.669 259.792,215.513C259.347,215.356 258.848,215.278 258.295,215.278C257.381,215.278 256.618,215.428 256.004,215.729C255.391,216.03 254.922,216.487 254.597,217.1C254.273,217.713 254.05,218.489 253.93,219.427Z" style="fill:rgb(8,6,5);fill-rule:nonzero;"/>
                <path d="M275.791,231.403C275.165,231.403 274.498,231.331 273.789,231.187C273.079,231.042 272.412,230.784 271.787,230.411C271.161,230.038 270.65,229.497 270.253,228.788C269.857,228.078 269.658,227.17 269.658,226.064C269.658,224.741 269.947,223.647 270.524,222.781C271.101,221.916 271.925,221.236 272.995,220.743C274.065,220.25 275.346,219.908 276.837,219.715C278.328,219.523 279.975,219.427 281.779,219.427L281.779,218.02C281.779,217.467 281.689,216.986 281.508,216.577C281.328,216.168 281.015,215.843 280.57,215.603C280.126,215.362 279.506,215.242 278.713,215.242C277.919,215.242 277.276,215.338 276.783,215.531C276.29,215.723 275.941,215.97 275.737,216.27C275.532,216.571 275.43,216.901 275.43,217.262L275.43,217.695L270.56,217.695C270.536,217.575 270.524,217.461 270.524,217.352L270.524,216.938C270.524,215.831 270.861,214.875 271.534,214.07C272.207,213.264 273.157,212.645 274.384,212.212C275.61,211.779 277.041,211.563 278.677,211.563C280.432,211.563 281.905,211.791 283.096,212.248C284.286,212.705 285.2,213.378 285.837,214.268C286.474,215.158 286.793,216.276 286.793,217.623L286.793,226.245C286.793,226.677 286.919,226.996 287.172,227.2C287.424,227.405 287.707,227.507 288.02,227.507L289.21,227.507L289.21,230.79C288.97,230.91 288.597,231.036 288.092,231.169C287.587,231.301 286.973,231.367 286.252,231.367C285.555,231.367 284.935,231.265 284.394,231.06C283.853,230.856 283.402,230.567 283.041,230.195C282.681,229.822 282.428,229.371 282.284,228.842L282.031,228.842C281.623,229.347 281.124,229.792 280.534,230.177C279.945,230.561 279.26,230.862 278.478,231.078C277.697,231.295 276.801,231.403 275.791,231.403ZM277.486,227.615C278.159,227.615 278.761,227.513 279.29,227.309C279.819,227.104 280.264,226.828 280.625,226.479C280.985,226.13 281.268,225.703 281.472,225.198C281.677,224.693 281.779,224.152 281.779,223.575L281.779,222.529C280.432,222.529 279.23,222.619 278.172,222.799C277.113,222.98 276.278,223.286 275.664,223.719C275.051,224.152 274.745,224.753 274.745,225.523C274.745,225.956 274.853,226.329 275.069,226.641C275.286,226.954 275.598,227.194 276.007,227.363C276.416,227.531 276.909,227.615 277.486,227.615Z" style="fill:rgb(8,6,5);fill-rule:nonzero;"/>
                <path d="M291.699,230.97L291.699,211.995L295.848,211.995L296.244,214.953L296.497,214.953C296.737,214.328 297.05,213.757 297.435,213.24C297.82,212.723 298.301,212.308 298.878,211.995C299.455,211.683 300.128,211.527 300.898,211.527C301.307,211.527 301.679,211.569 302.016,211.653C302.353,211.737 302.605,211.815 302.774,211.887L302.774,216.433L301.223,216.433C300.477,216.433 299.822,216.535 299.256,216.739C298.691,216.944 298.216,217.262 297.832,217.695C297.447,218.128 297.164,218.657 296.984,219.282C296.803,219.908 296.713,220.641 296.713,221.483L296.713,230.97L291.699,230.97Z" style="fill:rgb(8,6,5);fill-rule:nonzero;"/>
                <path d="M305.407,230.97L305.407,211.995L309.555,211.995L309.952,214.593L310.205,214.593C310.638,213.967 311.161,213.426 311.774,212.969C312.387,212.513 313.079,212.164 313.848,211.923C314.618,211.683 315.46,211.563 316.373,211.563C317.624,211.563 318.718,211.791 319.656,212.248C320.594,212.705 321.321,213.426 321.839,214.412C322.356,215.398 322.614,216.685 322.614,218.272L322.614,230.97L317.6,230.97L317.6,219.066C317.6,218.465 317.528,217.954 317.383,217.533C317.239,217.112 317.029,216.763 316.752,216.487C316.476,216.21 316.133,216.012 315.724,215.891C315.315,215.771 314.858,215.711 314.353,215.711C313.608,215.711 312.934,215.891 312.333,216.252C311.732,216.613 311.263,217.106 310.926,217.731C310.59,218.356 310.421,219.078 310.421,219.896L310.421,230.97L305.407,230.97Z" style="fill:rgb(8,6,5);fill-rule:nonzero;"/>
                <path d="M345.882,231.403C341.986,231.403 338.985,230.363 336.881,228.283C334.777,226.202 333.725,222.974 333.725,218.597C333.725,215.687 334.23,213.288 335.24,211.4C336.25,209.512 337.717,208.106 339.641,207.18C341.565,206.254 343.873,205.791 346.567,205.791C348.178,205.791 349.693,205.971 351.112,206.332C352.531,206.693 353.788,207.246 354.882,207.991C355.976,208.737 356.83,209.669 357.443,210.787C358.056,211.905 358.363,213.234 358.363,214.773L352.916,214.773C352.916,214.028 352.754,213.366 352.429,212.789C352.104,212.212 351.653,211.731 351.076,211.346C350.499,210.961 349.838,210.673 349.092,210.48C348.347,210.288 347.565,210.192 346.747,210.192C345.497,210.192 344.403,210.354 343.465,210.679C342.527,211.003 341.751,211.496 341.138,212.158C340.525,212.819 340.062,213.643 339.749,214.629C339.436,215.615 339.28,216.757 339.28,218.056L339.28,219.138C339.28,220.942 339.545,222.421 340.074,223.575C340.603,224.729 341.396,225.589 342.455,226.154C343.513,226.719 344.823,227.002 346.387,227.002C347.685,227.002 348.834,226.804 349.832,226.407C350.83,226.01 351.611,225.439 352.176,224.693C352.742,223.948 353.024,223.034 353.024,221.952L353.024,221.699L345.629,221.699L345.629,217.587L358.363,217.587L358.363,230.97L354.828,230.97L354.359,228.301C353.637,228.998 352.862,229.575 352.032,230.032C351.202,230.489 350.282,230.832 349.272,231.06C348.262,231.289 347.132,231.403 345.882,231.403Z" style="fill:rgb(8,6,5);fill-rule:nonzero;"/>
                <path d="M374.271,231.403C372.011,231.403 370.069,231.042 368.446,230.321C366.822,229.599 365.578,228.511 364.712,227.056C363.846,225.601 363.413,223.792 363.413,221.627L363.413,206.224L368.824,206.224L368.824,221.483C368.824,223.262 369.293,224.627 370.231,225.577C371.169,226.527 372.516,227.002 374.271,227.002C376.027,227.002 377.38,226.527 378.33,225.577C379.28,224.627 379.755,223.262 379.755,221.483L379.755,206.224L385.166,206.224L385.166,221.627C385.166,223.792 384.733,225.601 383.867,227.056C383.001,228.511 381.757,229.599 380.133,230.321C378.51,231.042 376.556,231.403 374.271,231.403Z" style="fill:rgb(8,6,5);fill-rule:nonzero;"/>
                <path d="M390.541,230.97L390.541,206.224L404.104,206.224C405.932,206.224 407.453,206.548 408.667,207.198C409.882,207.847 410.79,208.755 411.391,209.921C411.992,211.088 412.293,212.428 412.293,213.943C412.293,215.555 411.932,216.98 411.211,218.218C410.489,219.457 409.443,220.401 408.072,221.05L413.123,230.97L407.17,230.97L402.806,221.952L395.915,221.952L395.915,230.97L390.541,230.97ZM395.915,217.695L403.383,217.695C404.465,217.695 405.307,217.364 405.908,216.703C406.509,216.042 406.81,215.146 406.81,214.016C406.81,213.294 406.677,212.675 406.413,212.158C406.148,211.641 405.764,211.25 405.259,210.985C404.754,210.721 404.128,210.589 403.383,210.589L395.915,210.589L395.915,217.695Z" style="fill:rgb(8,6,5);fill-rule:nonzero;"/>
                <path d="M427.263,231.403C425.003,231.403 423.061,231.042 421.438,230.321C419.814,229.599 418.57,228.511 417.704,227.056C416.838,225.601 416.405,223.792 416.405,221.627L416.405,206.224L421.816,206.224L421.816,221.483C421.816,223.262 422.285,224.627 423.223,225.577C424.161,226.527 425.508,227.002 427.263,227.002C429.019,227.002 430.372,226.527 431.322,225.577C432.272,224.627 432.747,223.262 432.747,221.483L432.747,206.224L438.158,206.224L438.158,221.627C438.158,223.792 437.725,225.601 436.859,227.056C435.993,228.511 434.749,229.599 433.125,230.321C431.502,231.042 429.548,231.403 427.263,231.403Z" style="fill:rgb(8,6,5);fill-rule:nonzero;"/>
            </g>
            <g transform="matrix(0.266289,0,0,0.0411826,98.3472,0.460259)">
                <rect x="228.591" y="209.717" width="3.47" height="21.253" style="fill:rgb(8,6,5);fill-opacity:0.51;fill-rule:nonzero;"/>
                <path d="M242.656,230.97L242.656,209.717L246.002,209.717L255.7,223.039C255.823,223.163 255.963,223.338 256.118,223.566C256.273,223.793 256.422,224.02 256.567,224.247C256.712,224.474 256.815,224.66 256.877,224.805L257.032,224.805L257.032,209.717L260.378,209.717L260.378,230.97L257.156,230.97L247.335,217.493C247.169,217.245 246.963,216.93 246.715,216.548C246.467,216.166 246.281,215.872 246.157,215.665L246.002,215.665L246.002,230.97L242.656,230.97Z" style="fill:rgb(8,6,5);fill-opacity:0.51;fill-rule:nonzero;"/>
                <path d="M280.175,231.342C278.006,231.342 276.163,230.955 274.645,230.18C273.127,229.406 271.965,228.202 271.159,226.571C270.354,224.939 269.951,222.863 269.951,220.344C269.951,216.626 270.855,213.863 272.662,212.056C274.469,210.249 276.984,209.345 280.206,209.345C281.982,209.345 283.578,209.645 284.992,210.244C286.407,210.843 287.523,211.736 288.338,212.923C289.154,214.111 289.562,215.624 289.562,217.462L286.03,217.462C286.03,216.326 285.793,215.376 285.318,214.612C284.843,213.848 284.166,213.269 283.288,212.877C282.411,212.485 281.393,212.288 280.237,212.288C278.791,212.288 277.567,212.572 276.565,213.14C275.564,213.708 274.81,214.56 274.304,215.696C273.798,216.832 273.545,218.278 273.545,220.034L273.545,220.715C273.545,222.471 273.798,223.917 274.304,225.053C274.81,226.189 275.559,227.03 276.55,227.578C277.541,228.125 278.77,228.399 280.237,228.399C281.435,228.399 282.478,228.208 283.366,227.826C284.254,227.443 284.941,226.87 285.426,226.106C285.912,225.342 286.154,224.392 286.154,223.256L289.562,223.256C289.562,225.094 289.154,226.612 288.338,227.81C287.523,229.008 286.407,229.896 284.992,230.474C283.578,231.053 281.972,231.342 280.175,231.342Z" style="fill:rgb(8,6,5);fill-opacity:0.51;fill-rule:nonzero;"/>
                <path d="M299.011,230.97L299.011,209.717L310.196,209.717C311.704,209.717 312.953,209.985 313.944,210.522C314.936,211.059 315.679,211.808 316.175,212.769C316.671,213.729 316.919,214.85 316.919,216.13C316.919,217.555 316.599,218.794 315.958,219.848C315.318,220.901 314.409,221.676 313.232,222.171L317.662,230.97L313.883,230.97L309.855,222.76L302.481,222.76L302.481,230.97L299.011,230.97ZM302.481,219.848L309.917,219.848C311.032,219.848 311.895,219.517 312.504,218.856C313.113,218.195 313.418,217.276 313.418,216.099C313.418,215.376 313.284,214.762 313.015,214.256C312.747,213.75 312.354,213.362 311.838,213.094C311.321,212.825 310.681,212.691 309.917,212.691L302.481,212.691L302.481,219.848Z" style="fill:rgb(8,6,5);fill-opacity:0.51;fill-rule:nonzero;"/>
                <path d="M326.957,230.97L326.957,209.717L343.439,209.717L343.439,212.691L330.427,212.691L330.427,218.609L342.076,218.609L342.076,221.583L330.427,221.583L330.427,227.996L343.625,227.996L343.625,230.97L326.957,230.97Z" style="fill:rgb(8,6,5);fill-opacity:0.51;fill-rule:nonzero;"/>
                <path d="M351.091,230.97L359.425,209.717L363.855,209.717L372.22,230.97L368.503,230.97L366.613,226.044L356.544,226.044L354.654,230.97L351.091,230.97ZM357.659,223.101L365.466,223.101L363.081,216.874C363.019,216.688 362.926,216.43 362.802,216.099C362.678,215.769 362.549,215.407 362.415,215.015C362.281,214.622 362.146,214.225 362.012,213.822C361.878,213.419 361.759,213.053 361.656,212.722L361.47,212.722C361.346,213.115 361.191,213.579 361.005,214.116C360.819,214.653 360.639,215.17 360.463,215.665C360.287,216.161 360.138,216.564 360.014,216.874L357.659,223.101Z" style="fill:rgb(8,6,5);fill-opacity:0.51;fill-rule:nonzero;"/>
                <path d="M388.393,231.342C387.236,231.342 386.121,231.223 385.047,230.986C383.973,230.748 383.023,230.366 382.196,229.839C381.37,229.313 380.72,228.641 380.245,227.826C379.77,227.01 379.532,226.034 379.532,224.898C379.532,224.774 379.537,224.655 379.548,224.542C379.558,224.428 379.563,224.33 379.563,224.247L383.033,224.247C383.033,224.309 383.028,224.402 383.017,224.526C383.007,224.65 383.002,224.753 383.002,224.836C383.002,225.6 383.229,226.251 383.684,226.788C384.138,227.325 384.773,227.727 385.589,227.996C386.405,228.264 387.339,228.399 388.393,228.399C388.971,228.399 389.529,228.363 390.066,228.29C390.603,228.218 391.093,228.104 391.537,227.949C391.981,227.795 392.369,227.598 392.699,227.361C393.03,227.123 393.288,226.839 393.474,226.509C393.66,226.178 393.752,225.796 393.752,225.363C393.752,224.702 393.561,224.154 393.179,223.72C392.797,223.287 392.281,222.925 391.63,222.636C390.98,222.347 390.246,222.089 389.431,221.862C388.615,221.634 387.773,221.407 386.906,221.18C386.038,220.953 385.196,220.684 384.381,220.375C383.565,220.065 382.832,219.688 382.181,219.244C381.53,218.8 381.014,218.242 380.632,217.571C380.25,216.899 380.059,216.078 380.059,215.108C380.059,214.178 380.255,213.352 380.647,212.629C381.04,211.906 381.608,211.302 382.351,210.817C383.095,210.331 383.983,209.965 385.016,209.717C386.048,209.469 387.215,209.345 388.517,209.345C389.632,209.345 390.685,209.464 391.677,209.701C392.668,209.939 393.536,210.306 394.279,210.801C395.023,211.297 395.606,211.927 396.03,212.691C396.453,213.455 396.665,214.364 396.665,215.417L396.665,215.789L393.226,215.789L393.226,215.387C393.226,214.726 393.03,214.168 392.637,213.714C392.245,213.259 391.697,212.908 390.995,212.66C390.293,212.412 389.477,212.288 388.548,212.288C387.453,212.288 386.534,212.397 385.79,212.614C385.047,212.831 384.484,213.13 384.102,213.512C383.72,213.894 383.529,214.354 383.529,214.891C383.529,215.49 383.725,215.98 384.117,216.362C384.51,216.745 385.031,217.07 385.682,217.338C386.332,217.607 387.066,217.85 387.881,218.066C388.697,218.283 389.534,218.51 390.391,218.748C391.248,218.986 392.085,219.259 392.9,219.569C393.716,219.879 394.45,220.261 395.1,220.715C395.751,221.17 396.272,221.733 396.665,222.404C397.057,223.075 397.253,223.896 397.253,224.867C397.253,226.395 396.871,227.64 396.107,228.6C395.343,229.56 394.295,230.258 392.962,230.691C391.63,231.125 390.107,231.342 388.393,231.342Z" style="fill:rgb(8,6,5);fill-opacity:0.51;fill-rule:nonzero;"/>
                <path d="M406.858,230.97L406.858,209.717L423.34,209.717L423.34,212.691L410.327,212.691L410.327,218.609L421.976,218.609L421.976,221.583L410.327,221.583L410.327,227.996L423.526,227.996L423.526,230.97L406.858,230.97Z" style="fill:rgb(8,6,5);fill-opacity:0.51;fill-rule:nonzero;"/>
                <path d="M449.829,230.97L449.829,222.233L441.557,209.717L445.522,209.717L451.595,219.135L451.75,219.135L457.76,209.717L461.571,209.717L453.299,222.233L453.299,230.97L449.829,230.97Z" style="fill:rgb(8,6,5);fill-opacity:0.51;fill-rule:nonzero;"/>
                <path d="M479.168,231.342C476.979,231.342 475.084,230.939 473.483,230.134C471.882,229.328 470.653,228.11 469.796,226.478C468.939,224.846 468.51,222.801 468.51,220.344C468.51,217.865 468.939,215.815 469.796,214.194C470.653,212.572 471.882,211.359 473.483,210.553C475.084,209.748 476.979,209.345 479.168,209.345C481.399,209.345 483.309,209.748 484.9,210.553C486.49,211.359 487.714,212.572 488.571,214.194C489.428,215.815 489.857,217.865 489.857,220.344C489.857,222.801 489.428,224.846 488.571,226.478C487.714,228.11 486.49,229.328 484.9,230.134C483.309,230.939 481.399,231.342 479.168,231.342ZM479.168,228.399C480.304,228.399 481.311,228.244 482.189,227.934C483.067,227.624 483.81,227.149 484.419,226.509C485.029,225.869 485.493,225.063 485.814,224.092C486.134,223.122 486.294,221.996 486.294,220.715L486.294,220.034C486.294,218.712 486.134,217.566 485.814,216.595C485.493,215.624 485.029,214.819 484.419,214.178C483.81,213.538 483.067,213.063 482.189,212.753C481.311,212.443 480.304,212.288 479.168,212.288C478.053,212.288 477.056,212.443 476.178,212.753C475.301,213.063 474.557,213.538 473.948,214.178C473.338,214.819 472.879,215.624 472.569,216.595C472.259,217.566 472.104,218.712 472.104,220.034L472.104,220.715C472.104,221.996 472.259,223.122 472.569,224.092C472.879,225.063 473.338,225.869 473.948,226.509C474.557,227.149 475.301,227.624 476.178,227.934C477.056,228.244 478.053,228.399 479.168,228.399Z" style="fill:rgb(8,6,5);fill-opacity:0.51;fill-rule:nonzero;"/>
                <path d="M508.136,231.342C506.318,231.342 504.748,231.048 503.426,230.459C502.105,229.87 501.093,228.956 500.39,227.717C499.688,226.478 499.337,224.908 499.337,223.008L499.337,209.717L502.807,209.717L502.807,223.101C502.807,224.856 503.272,226.178 504.201,227.066C505.13,227.955 506.442,228.399 508.136,228.399C509.85,228.399 511.187,227.955 512.148,227.066C513.108,226.178 513.588,224.856 513.588,223.101L513.588,209.717L517.058,209.717L517.058,223.008C517.058,224.908 516.702,226.478 515.989,227.717C515.277,228.956 514.254,229.87 512.922,230.459C511.59,231.048 509.995,231.342 508.136,231.342Z" style="fill:rgb(8,6,5);fill-opacity:0.51;fill-rule:nonzero;"/>
                <path d="M527.561,230.97L527.561,209.717L538.745,209.717C540.253,209.717 541.503,209.985 542.494,210.522C543.485,211.059 544.229,211.808 544.725,212.769C545.22,213.729 545.468,214.85 545.468,216.13C545.468,217.555 545.148,218.794 544.508,219.848C543.867,220.901 542.959,221.676 541.781,222.171L546.212,230.97L542.432,230.97L538.404,222.76L531.031,222.76L531.031,230.97L527.561,230.97ZM531.031,219.848L538.466,219.848C539.582,219.848 540.444,219.517 541.053,218.856C541.663,218.195 541.967,217.276 541.967,216.099C541.967,215.376 541.833,214.762 541.565,214.256C541.296,213.75 540.904,213.362 540.387,213.094C539.871,212.825 539.231,212.691 538.466,212.691L531.031,212.691L531.031,219.848Z" style="fill:rgb(8,6,5);fill-opacity:0.51;fill-rule:nonzero;"/>
                <path d="M567.434,230.97L567.434,209.717L570.904,209.717L570.904,220.313L581.035,209.717L585.31,209.717L577.131,218.268L585.527,230.97L581.438,230.97L574.777,220.715L570.904,224.278L570.904,230.97L567.434,230.97Z" style="fill:rgb(8,6,5);fill-opacity:0.51;fill-rule:nonzero;"/>
                <path d="M593.985,230.97L593.985,209.717L597.331,209.717L607.028,223.039C607.152,223.163 607.291,223.338 607.446,223.566C607.601,223.793 607.751,224.02 607.896,224.247C608.04,224.474 608.143,224.66 608.205,224.805L608.36,224.805L608.36,209.717L611.706,209.717L611.706,230.97L608.484,230.97L598.663,217.493C598.498,217.245 598.291,216.93 598.044,216.548C597.796,216.166 597.61,215.872 597.486,215.665L597.331,215.665L597.331,230.97L593.985,230.97Z" style="fill:rgb(8,6,5);fill-opacity:0.51;fill-rule:nonzero;"/>
                <path d="M631.937,231.342C629.748,231.342 627.853,230.939 626.252,230.134C624.651,229.328 623.422,228.11 622.565,226.478C621.708,224.846 621.28,222.801 621.28,220.344C621.28,217.865 621.708,215.815 622.565,214.194C623.422,212.572 624.651,211.359 626.252,210.553C627.853,209.748 629.748,209.345 631.937,209.345C634.168,209.345 636.078,209.748 637.669,210.553C639.259,211.359 640.483,212.572 641.34,214.194C642.197,215.815 642.626,217.865 642.626,220.344C642.626,222.801 642.197,224.846 641.34,226.478C640.483,228.11 639.259,229.328 637.669,230.134C636.078,230.939 634.168,231.342 631.937,231.342ZM631.937,228.399C633.073,228.399 634.08,228.244 634.958,227.934C635.836,227.624 636.579,227.149 637.188,226.509C637.798,225.869 638.263,225.063 638.583,224.092C638.903,223.122 639.063,221.996 639.063,220.715L639.063,220.034C639.063,218.712 638.903,217.566 638.583,216.595C638.263,215.624 637.798,214.819 637.188,214.178C636.579,213.538 635.836,213.063 634.958,212.753C634.08,212.443 633.073,212.288 631.937,212.288C630.822,212.288 629.825,212.443 628.947,212.753C628.07,213.063 627.326,213.538 626.717,214.178C626.107,214.819 625.648,215.624 625.338,216.595C625.028,217.566 624.873,218.712 624.873,220.034L624.873,220.715C624.873,221.996 625.028,223.122 625.338,224.092C625.648,225.063 626.107,225.869 626.717,226.509C627.326,227.149 628.07,227.624 628.947,227.934C629.825,228.244 630.822,228.399 631.937,228.399Z" style="fill:rgb(8,6,5);fill-opacity:0.51;fill-rule:nonzero;"/>
                <path d="M655.452,230.97L649.597,209.717L653.283,209.717L656.908,223.72C656.97,223.948 657.042,224.258 657.125,224.65C657.208,225.042 657.285,225.45 657.357,225.874C657.43,226.297 657.497,226.684 657.559,227.036L657.745,227.036C657.807,226.767 657.858,226.478 657.9,226.168C657.941,225.858 657.992,225.548 658.054,225.239C658.116,224.929 658.173,224.64 658.225,224.371C658.276,224.103 658.313,223.886 658.333,223.72L661.679,209.717L666.141,209.717L669.518,223.72C669.579,223.948 669.652,224.258 669.734,224.65C669.817,225.042 669.894,225.45 669.967,225.874C670.039,226.297 670.106,226.684 670.168,227.036L670.354,227.036C670.395,226.788 670.447,226.509 670.509,226.199C670.571,225.889 670.633,225.585 670.695,225.285C670.757,224.986 670.824,224.702 670.896,224.433C670.968,224.165 671.025,223.927 671.067,223.72L674.691,209.717L677.975,209.717L672.12,230.97L668.061,230.97L664.499,216.781C664.437,216.471 664.364,216.115 664.282,215.712C664.199,215.309 664.122,214.896 664.049,214.473C663.977,214.049 663.92,213.683 663.879,213.373L663.724,213.373C663.683,213.703 663.631,214.085 663.569,214.519C663.507,214.953 663.435,215.371 663.352,215.774C663.27,216.177 663.197,216.512 663.135,216.781L659.634,230.97L655.452,230.97Z" style="fill:rgb(8,6,5);fill-opacity:0.51;fill-rule:nonzero;"/>
                <path d="M686.402,230.97L686.402,209.717L689.872,209.717L689.872,227.965L700.468,227.965L700.468,230.97L686.402,230.97Z" style="fill:rgb(8,6,5);fill-opacity:0.51;fill-rule:nonzero;"/>
                <path d="M709.081,230.97L709.081,209.717L725.563,209.717L725.563,212.691L712.551,212.691L712.551,218.609L724.2,218.609L724.2,221.583L712.551,221.583L712.551,227.996L725.749,227.996L725.749,230.97L709.081,230.97Z" style="fill:rgb(8,6,5);fill-opacity:0.51;fill-rule:nonzero;"/>
                <path d="M735.539,230.97L735.539,209.717L743.749,209.717C745.938,209.717 747.807,210.094 749.356,210.848C750.906,211.602 752.098,212.758 752.935,214.318C753.771,215.877 754.19,217.886 754.19,220.344C754.19,222.781 753.771,224.784 752.935,226.354C752.098,227.924 750.906,229.085 749.356,229.839C747.807,230.593 745.938,230.97 743.749,230.97L735.539,230.97ZM739.009,227.996L743.718,227.996C744.813,227.996 745.788,227.851 746.646,227.562C747.503,227.273 748.226,226.829 748.814,226.23C749.403,225.631 749.847,224.872 750.147,223.953C750.446,223.034 750.596,221.944 750.596,220.684L750.596,220.034C750.596,218.753 750.446,217.653 750.147,216.734C749.847,215.815 749.403,215.056 748.814,214.457C748.226,213.858 747.503,213.414 746.646,213.125C745.788,212.836 744.813,212.691 743.718,212.691L739.009,212.691L739.009,227.996Z" style="fill:rgb(8,6,5);fill-opacity:0.51;fill-rule:nonzero;"/>
                <path d="M773.398,231.342C770.031,231.342 767.444,230.454 765.637,228.678C763.83,226.901 762.926,224.123 762.926,220.344C762.926,217.865 763.35,215.815 764.197,214.194C765.043,212.572 766.272,211.359 767.883,210.553C769.494,209.748 771.457,209.345 773.77,209.345C775.154,209.345 776.439,209.5 777.627,209.81C778.815,210.12 779.858,210.59 780.756,211.22C781.655,211.849 782.346,212.64 782.832,213.59C783.317,214.54 783.56,215.665 783.56,216.967L780.028,216.967C780.028,216.161 779.868,215.464 779.548,214.875C779.228,214.287 778.784,213.796 778.216,213.404C777.648,213.011 776.987,212.727 776.233,212.552C775.479,212.376 774.679,212.288 773.832,212.288C772.654,212.288 771.606,212.443 770.687,212.753C769.768,213.063 768.999,213.538 768.379,214.178C767.759,214.819 767.295,215.624 766.985,216.595C766.675,217.566 766.52,218.712 766.52,220.034L766.52,220.684C766.52,222.502 766.784,223.979 767.31,225.115C767.837,226.251 768.622,227.082 769.665,227.609C770.708,228.135 771.983,228.399 773.491,228.399C774.916,228.399 776.114,228.192 777.085,227.779C778.056,227.366 778.799,226.752 779.315,225.936C779.832,225.12 780.09,224.103 780.09,222.884L780.09,222.574L772.933,222.574L772.933,219.693L783.56,219.693L783.56,230.97L781.05,230.97L780.71,228.43C780.131,229.111 779.47,229.664 778.727,230.087C777.983,230.511 777.173,230.826 776.295,231.032C775.417,231.239 774.451,231.342 773.398,231.342Z" style="fill:rgb(8,6,5);fill-opacity:0.51;fill-rule:nonzero;"/>
                <path d="M793.97,230.97L793.97,209.717L810.452,209.717L810.452,212.691L797.44,212.691L797.44,218.609L809.089,218.609L809.089,221.583L797.44,221.583L797.44,227.996L810.638,227.996L810.638,230.97L793.97,230.97Z" style="fill:rgb(8,6,5);fill-opacity:0.51;fill-rule:nonzero;"/>
            </g>
        </g>
        <g transform="matrix(0.75,0,0,0.11599,0,0)">
            <path d="M179.652,121.231L187.626,125.835C190.527,127.51 192.314,130.605 192.314,133.955L192.314,159.717C192.314,163.067 190.527,166.162 187.626,167.837L165.315,180.718C162.414,182.393 158.84,182.393 155.939,180.718L133.628,167.837C130.728,166.162 128.941,163.067 128.941,159.717L128.941,133.955C128.941,130.605 130.728,127.51 133.628,125.835L155.939,112.954C158.84,111.279 162.414,111.279 165.315,112.954L169.841,115.567L140.039,132.98C138.965,133.608 138.304,134.758 138.304,136.002L138.304,156.669C138.304,157.872 138.922,158.99 139.939,159.631L158.762,171.488C159.878,172.191 161.294,172.207 162.425,171.529L181.216,160.277C182.308,159.624 182.959,158.428 182.916,157.156L182.13,133.949C182.09,132.743 181.431,131.643 180.387,131.039C179.343,130.434 178.061,130.409 176.995,130.974L156.02,142.076C154.607,142.824 153.881,144.434 154.255,145.989C154.255,145.989 155.054,149.1 156.344,150.887C157.608,152.636 159.333,153.399 161.009,153.215L160.402,147.678L175.324,139.779L175.85,155.332L160.674,164.419C160.674,164.419 145.304,154.738 145.304,154.738L145.304,138.011C145.304,138.011 174.067,121.205 174.067,121.205C174.068,121.205 176.399,119.216 179.652,121.231Z" style="fill:rgb(231,120,36);"/>
        </g>
    </g>
</svg>
